<?xml version="1.0" ?><svg height="612" id="svg3626" version="1.0" width="612" xmlns="http://www.w3.org/2000/svg" xmlns:cc="http://creativecommons.org/ns#" xmlns:dc="http://purl.org/dc/elements/1.1/" xmlns:inkscape="http://www.inkscape.org/namespaces/inkscape" xmlns:rdf="http://www.w3.org/1999/02/22-rdf-syntax-ns#" xmlns:sodipodi="http://sodipodi.sourceforge.net/DTD/sodipodi-0.dtd" xmlns:svg="http://www.w3.org/2000/svg"><defs id="defs3628"><marker id="ArrowEnd" markerHeight="3" markerUnits="strokeWidth" markerWidth="4" orient="auto" refX="0" refY="5" viewBox="0 0 10 10"><path d="M 0,0 L 10,5 L 0,10 L 0,0 z" id="path3631"/></marker><marker id="ArrowStart" markerHeight="3" markerUnits="strokeWidth" markerWidth="4" orient="auto" refX="10" refY="5" viewBox="0 0 10 10"><path d="M 10,0 L 0,5 L 10,10 L 10,0 z" id="path3634"/></marker></defs><g id="g3636"><path d="M 82.4318,17.9239 C 41.0968,17.9239 17.8608,39.2949 17.8608,82.9599 L 17.8608,533.082 C 17.8608,573.925 38.7518,595.31 80.0528,595.31 L 532.077,595.31 C 573.38,595.31 594.303,574.99 594.303,533.082 L 594.303,82.9599 C 594.303,40.3599 573.38,17.9239 530.78,17.9239 C 530.78,17.9239 82.2888,17.7819 82.4318,17.9239 z" id="path3638" style="fill:#000000;stroke:#000000;stroke-width:3.40799999"/><g id="g3640"><g id="g3642"><path d="M 337.192,529.286 C 359.675,519.554 370.166,520.87 388.67,530.551 C 407.175,540.233 425.678,540.233 447.503,529.1 C 469.325,517.966 487.087,524.313 496.942,530.286 C 505.192,535.286 513.442,537.286 525.786,537.286 L 525.786,492.756 C 507.192,492.786 499.216,486.464 499.216,486.464 C 480.002,474.604 462.389,476.95 438.192,489.536 C 424.39,496.712 402.503,494.824 387.008,486.746 C 365.657,475.614 353.569,478.336 331.192,488.286 C 313.855,495.994 298.208,495.99 280.942,488.286 C 258.579,478.308 247.046,475.614 225.695,486.746 C 210.201,494.824 187.994,496.712 174.192,489.536 C 149.994,476.95 132.702,474.604 113.486,486.464 C 113.486,486.464 105.192,492.756 86.9168,492.756 L 86.9168,537.286 C 98.4418,537.286 107.442,535.036 115.192,530.286 C 125.027,524.258 143.376,517.966 165.201,529.1 C 187.026,540.233 205.53,540.233 224.034,530.551 C 242.538,520.87 252.793,519.126 275.276,528.858 C 297.101,539.991 318.688,538.967 337.192,529.286 z" id="path3644" style="fill:#ffffff;stroke:none"/><path d="M 336.692,463.286 C 354.442,454.286 370.403,454.8 388.906,464.481 C 407.41,474.162 425.914,474.162 447.739,463.029 C 469.564,451.896 487.885,457.522 498.031,462.987 C 506.942,467.786 513.192,470.286 526.025,471.215 L 526.025,427.786 C 509.692,427.394 499.455,421.494 499.455,421.494 C 461.692,400.894 445.264,425.975 424.965,425.975 L 424.965,325.563 L 456.28,253.441 C 461.024,242.309 456.28,232.143 444.893,227.303 L 425.914,219.558 L 425.914,157.118 L 389.355,157.118 L 389.355,124.219 L 338.138,124.219 L 338.138,80.1549 L 306.352,80.1549 L 274.565,80.1549 L 274.565,124.219 L 223.349,124.219 L 223.349,157.118 L 186.791,157.118 L 186.791,219.558 L 167.812,227.303 C 156.425,232.143 151.68,242.309 156.425,253.441 L 187.739,325.563 L 187.739,425.975 L 187.75,425.975 C 167.453,425.975 150.192,401.286 113.261,421.886 L 113.249,421.886 C 113.249,421.886 102.692,427.786 86.6788,428.178 L 86.6788,471.215 C 99.1918,470.286 105.192,468.286 114.672,462.987 C 124.738,457.359 143.14,451.896 164.965,463.029 C 186.791,474.162 205.294,474.162 223.798,464.481 C 242.302,454.8 258.433,454.316 275.75,463.029 C 297.576,474.162 314.692,474.286 336.692,463.286 z" id="path3646" style="fill:#ffffff;stroke:none"/></g><path d="M 306.352,150.341 L 250.367,150.341 L 250.367,182.755 L 213.834,182.755 L 213.834,207.941 L 306.352,169.786 L 398.87,207.941 L 398.87,182.755 L 362.336,182.755 L 362.336,150.341 L 306.352,150.341 z" id="path3648" style="fill:#000000;stroke:none"/></g></g></svg>