<?xml version="1.0" ?><!DOCTYPE svg  PUBLIC '-//W3C//DTD SVG 1.1//EN'  'http://www.w3.org/Graphics/SVG/1.1/DTD/svg11.dtd'><svg height="1015.8px" id="Layer_1" style="enable-background:new 0 0 1015.8 1015.8;" version="1.1" viewBox="0 0 1015.8 1015.8" width="1015.8px" xml:space="preserve" xmlns="http://www.w3.org/2000/svg" xmlns:xlink="http://www.w3.org/1999/xlink"><g><path d="M334.3,566.5l1.5-9.1c36.5,7.5,64.6,14.8,83.9,21.3c-2.7-8.5-4.2-17.6-4.2-27c0-3.2,0.2-6.4,0.5-9.5   c-117.5-12.4-235.5-21.9-354-28.6l-16.7-24.4c-0.2-0.3-0.4-0.5-0.7-0.7c-0.3-0.2-0.6-0.3-0.9-0.3l-1.6-0.2   c-0.7-0.1-1.4,0.1-1.9,0.7c-0.5,0.6-0.6,1.3-0.4,2l8.1,25.8c-0.1,0.3,0.1,0.4,0.7,0.5c41,3.9,79,8.2,114,12.6l-14.2,10l0,0   c-0.4,0-0.8,0-1.3,0.1c-24.6,2.4-29.3,33.9-6.2,43.2c14.5,4.9,29.3-6.5,37.8-12.8c13.3-9.8,5.4-21.2-1.6-24.5   c-0.2-0.1-0.5-0.2-0.7-0.4l4.9-2.8l5.6-9.7c51.2,6.9,95.4,14.1,132,21.2l-5.6,11.4c-18.5,2.6-24.3,19.3-22.4,29.6   c1.5,13.6,14.6,20.1,22.7,20c14.8,1,26.1-13.5,29.4-22.3C346,585,344.2,572.6,334.3,566.5z M147.2,576.9c-7.7,0-13.9-6.7-13.9-15   c0-8.3,6.2-15,13.9-15s13.9,6.7,13.9,15C161.1,570.2,154.9,576.9,147.2,576.9z M314,606.7c-8.8,0-16-7.1-16-16c0-8.8,7.1-16,16-16   c8.8,0,16,7.1,16,16C329.9,599.6,322.8,606.7,314,606.7z"/><path d="M636.5,488.7l-76.1,4.7c-12-10.6-27.3-17.6-44.2-19.2l-6.2-87.4c0-1-2.9-1-2.9,0l-6.2,87.4c-16.9,1.6-32.2,8.6-44.2,19.2   l-76.1-4.7c-1.5-0.2-1.5,2.6,0,2.8l65.3,13.6c-9.8,13-15.6,29.1-15.6,46.6c0,43,35.1,77.9,78.3,77.9c43.2,0,78.3-34.9,78.3-77.9   c0-17.5-5.8-33.6-15.6-46.6l65.3-13.6C638,491.3,638,488.6,636.5,488.7z M467.7,523.3l-1.1,4.8c-0.3,1.4-0.8,2.8-1.5,4l-1.5,2.6   c-0.7,1.2-1.8,2.2-3.1,2.6l-1.2,0.4c-1.4,0.5-2.8,0.7-4.2,0.6l-6.3-0.5c-0.9-0.1-1.4-1.2-0.8-1.9l11.7-15.2   c0.8-1.1,2.2-1.7,3.5-1.6l2.8,0.2c0.8,0.1,1.4,0.6,1.6,1.3C467.9,521.7,467.9,522.5,467.7,523.3z M501.6,533.3   c0,0.9-0.7,1.6-1.6,1.6l-21.7-0.9c-0.9,0-1.6-0.7-1.6-1.6l3.1-11.6c0-0.9,0.7-1.6,1.6-1.6H500c0.9,0,1.6,0.7,1.6,1.6V533.3z    M538.7,534l-21.7,0.9c-0.9,0-1.6-0.7-1.6-1.6v-12.5c0-0.9,0.7-1.6,1.6-1.6h18.6c0.9,0,1.6,0.7,1.6,1.6l3.1,11.6   C540.3,533.3,539.6,534,538.7,534z M568.1,538l-6.3,0.5c-1.4,0.1-2.9-0.1-4.2-0.6l-1.2-0.4c-1.3-0.5-2.4-1.4-3.1-2.6l-1.5-2.6   c-0.7-1.3-1.2-2.6-1.5-4l-1.1-4.8c-0.2-0.8-0.2-1.7,0.1-2.5c0.2-0.7,0.9-1.3,1.6-1.3l2.8-0.2c1.4-0.1,2.7,0.5,3.5,1.6l11.7,15.2   C569.6,536.8,569.1,537.9,568.1,538z"/><path d="M975.6,488.8c-0.5-0.6-1.2-0.8-1.9-0.7l-1.6,0.2c-0.3,0-0.6,0.2-0.9,0.3c-0.3,0.2-0.5,0.4-0.7,0.7l-16.7,24.4   c-118.1,6.6-235.7,16.1-352.8,28.4c0.3,3.2,0.5,6.4,0.5,9.7c0,9.2-1.4,18.2-4.1,26.5c19.2-6.4,46.8-13.5,82.5-20.8l1.5,9.1   c-9.9,6.1-11.7,18.5-8.7,26.4c3.3,8.8,14.6,23.2,29.4,22.3c8.1,0,21.2-6.5,22.7-20c1.9-10.3-3.9-27.1-22.4-29.6l-5.6-11.4   c36.7-7.1,80.8-14.3,132.1-21.2l5.6,9.7l4.9,2.8c-0.2,0.1-0.5,0.2-0.7,0.4c-7,3.3-14.9,14.6-1.6,24.5c8.5,6.3,23.3,17.7,37.8,12.8   c23.1-9.3,18.4-40.9-6.2-43.2c-0.4,0-0.8,0-1.3-0.1l0,0l-14.2-10c35-4.4,73-8.7,114-12.6c0.6-0.1,0.8-0.2,0.7-0.5l8.1-25.8   C976.3,490.2,976.1,489.4,975.6,488.8z M717.8,590.8c0,8.8-7.1,16-16,16c-8.8,0-16-7.1-16-16c0-8.8,7.1-16,16-16   C710.6,574.8,717.8,582,717.8,590.8z M882.4,561.9c0,8.3-6.2,15-13.9,15c-7.7,0-13.9-6.7-13.9-15c0-8.3,6.2-15,13.9-15   C876.2,546.9,882.4,553.7,882.4,561.9z"/></g></svg>